<svg width="176" height="25" viewBox="0 0 176 25" fill="none" xmlns="http://www.w3.org/2000/svg">
<path d="M40.34 6.49V19H38.288V13.528H32.402V19H30.35V6.49H32.402V11.854H38.288V6.49H40.34ZM48.7474 19.126C47.5834 19.126 46.5094 18.856 45.5254 18.316C44.5534 17.764 43.7794 17.002 43.2034 16.03C42.6394 15.046 42.3574 13.942 42.3574 12.718C42.3574 11.494 42.6394 10.396 43.2034 9.424C43.7794 8.452 44.5534 7.696 45.5254 7.156C46.5094 6.604 47.5834 6.328 48.7474 6.328C49.9234 6.328 50.9974 6.604 51.9694 7.156C52.9534 7.696 53.7274 8.452 54.2914 9.424C54.8554 10.396 55.1374 11.494 55.1374 12.718C55.1374 13.942 54.8554 15.046 54.2914 16.03C53.7274 17.002 52.9534 17.764 51.9694 18.316C50.9974 18.856 49.9234 19.126 48.7474 19.126ZM48.7474 17.344C49.5754 17.344 50.3134 17.158 50.9614 16.786C51.6094 16.402 52.1134 15.862 52.4734 15.166C52.8454 14.458 53.0314 13.642 53.0314 12.718C53.0314 11.794 52.8454 10.984 52.4734 10.288C52.1134 9.592 51.6094 9.058 50.9614 8.686C50.3134 8.314 49.5754 8.128 48.7474 8.128C47.9194 8.128 47.1814 8.314 46.5334 8.686C45.8854 9.058 45.3754 9.592 45.0034 10.288C44.6434 10.984 44.4634 11.794 44.4634 12.718C44.4634 13.642 44.6434 14.458 45.0034 15.166C45.3754 15.862 45.8854 16.402 46.5334 16.786C47.1814 17.158 47.9194 17.344 48.7474 17.344ZM70.3326 6.49V19H68.2806V10.432L64.4646 19H63.0426L59.2086 10.432V19H57.1566V6.49H59.3706L63.7626 16.3L68.1366 6.49H70.3326ZM75.0817 8.146V11.818H79.4017V13.492H75.0817V17.326H79.9417V19H73.0297V6.472H79.9417V8.146H75.0817ZM92.8509 19.126C91.6869 19.126 90.6129 18.856 89.6289 18.316C88.6569 17.764 87.8829 17.002 87.3069 16.03C86.7429 15.046 86.4609 13.942 86.4609 12.718C86.4609 11.494 86.7429 10.396 87.3069 9.424C87.8829 8.452 88.6569 7.696 89.6289 7.156C90.6129 6.604 91.6869 6.328 92.8509 6.328C94.0269 6.328 95.1009 6.604 96.0729 7.156C97.0569 7.696 97.8309 8.452 98.3949 9.424C98.9589 10.396 99.2409 11.494 99.2409 12.718C99.2409 13.942 98.9589 15.046 98.3949 16.03C97.8309 17.002 97.0569 17.764 96.0729 18.316C95.1009 18.856 94.0269 19.126 92.8509 19.126ZM92.8509 17.344C93.6789 17.344 94.4169 17.158 95.0649 16.786C95.7129 16.402 96.2169 15.862 96.5769 15.166C96.9489 14.458 97.1349 13.642 97.1349 12.718C97.1349 11.794 96.9489 10.984 96.5769 10.288C96.2169 9.592 95.7129 9.058 95.0649 8.686C94.4169 8.314 93.6789 8.128 92.8509 8.128C92.0229 8.128 91.2849 8.314 90.6369 8.686C89.9889 9.058 89.4789 9.592 89.1069 10.288C88.7469 10.984 88.5669 11.794 88.5669 12.718C88.5669 13.642 88.7469 14.458 89.1069 15.166C89.4789 15.862 89.9889 16.402 90.6369 16.786C91.2849 17.158 92.0229 17.344 92.8509 17.344ZM108.622 6.49V8.164H103.312V11.854H107.452V13.528H103.312V19H101.26V6.49H108.622ZM119.286 6.49C120.618 6.49 121.782 6.748 122.778 7.264C123.786 7.768 124.56 8.5 125.1 9.46C125.652 10.408 125.928 11.518 125.928 12.79C125.928 14.062 125.652 15.166 125.1 16.102C124.56 17.038 123.786 17.758 122.778 18.262C121.782 18.754 120.618 19 119.286 19H115.2V6.49H119.286ZM119.286 17.326C120.75 17.326 121.872 16.93 122.652 16.138C123.432 15.346 123.822 14.23 123.822 12.79C123.822 11.338 123.432 10.204 122.652 9.388C121.872 8.572 120.75 8.164 119.286 8.164H117.252V17.326H119.286ZM130.013 8.146V11.818H134.333V13.492H130.013V17.326H134.873V19H127.961V6.472H134.873V8.146H130.013ZM136.717 12.718C136.717 11.494 136.999 10.396 137.563 9.424C138.139 8.452 138.913 7.696 139.885 7.156C140.869 6.604 141.943 6.328 143.107 6.328C144.439 6.328 145.621 6.658 146.653 7.318C147.697 7.966 148.453 8.89 148.921 10.09H146.455C146.131 9.43 145.681 8.938 145.105 8.614C144.529 8.29 143.863 8.128 143.107 8.128C142.279 8.128 141.541 8.314 140.893 8.686C140.245 9.058 139.735 9.592 139.363 10.288C139.003 10.984 138.823 11.794 138.823 12.718C138.823 13.642 139.003 14.452 139.363 15.148C139.735 15.844 140.245 16.384 140.893 16.768C141.541 17.14 142.279 17.326 143.107 17.326C143.863 17.326 144.529 17.164 145.105 16.84C145.681 16.516 146.131 16.024 146.455 15.364H148.921C148.453 16.564 147.697 17.488 146.653 18.136C145.621 18.784 144.439 19.108 143.107 19.108C141.931 19.108 140.857 18.838 139.885 18.298C138.913 17.746 138.139 16.984 137.563 16.012C136.999 15.04 136.717 13.942 136.717 12.718ZM157.029 19.126C155.865 19.126 154.791 18.856 153.807 18.316C152.835 17.764 152.061 17.002 151.485 16.03C150.921 15.046 150.639 13.942 150.639 12.718C150.639 11.494 150.921 10.396 151.485 9.424C152.061 8.452 152.835 7.696 153.807 7.156C154.791 6.604 155.865 6.328 157.029 6.328C158.205 6.328 159.279 6.604 160.251 7.156C161.235 7.696 162.009 8.452 162.573 9.424C163.137 10.396 163.419 11.494 163.419 12.718C163.419 13.942 163.137 15.046 162.573 16.03C162.009 17.002 161.235 17.764 160.251 18.316C159.279 18.856 158.205 19.126 157.029 19.126ZM157.029 17.344C157.857 17.344 158.595 17.158 159.243 16.786C159.891 16.402 160.395 15.862 160.755 15.166C161.127 14.458 161.313 13.642 161.313 12.718C161.313 11.794 161.127 10.984 160.755 10.288C160.395 9.592 159.891 9.058 159.243 8.686C158.595 8.314 157.857 8.128 157.029 8.128C156.201 8.128 155.463 8.314 154.815 8.686C154.167 9.058 153.657 9.592 153.285 10.288C152.925 10.984 152.745 11.794 152.745 12.718C152.745 13.642 152.925 14.458 153.285 15.166C153.657 15.862 154.167 16.402 154.815 16.786C155.463 17.158 156.201 17.344 157.029 17.344ZM171.936 19L169.056 13.996H167.49V19H165.438V6.49H169.758C170.718 6.49 171.528 6.658 172.188 6.994C172.86 7.33 173.358 7.78 173.682 8.344C174.018 8.908 174.186 9.538 174.186 10.234C174.186 11.05 173.946 11.794 173.466 12.466C172.998 13.126 172.272 13.576 171.288 13.816L174.384 19H171.936ZM167.49 12.358H169.758C170.526 12.358 171.102 12.166 171.486 11.782C171.882 11.398 172.08 10.882 172.08 10.234C172.08 9.586 171.888 9.082 171.504 8.722C171.12 8.35 170.538 8.164 169.758 8.164H167.49V12.358Z" fill="#333333"/>
<path d="M9.57747 3.73521L4.53578 5.85802C3.44794 6.31606 2.90402 6.54508 2.598 7.00596C2.29199 7.46684 2.29199 8.05701 2.29199 9.23735V20.7087H5.04199V11.542C5.04199 10.6778 5.04199 10.2456 5.31047 9.97714C5.57897 9.70866 6.01108 9.70866 6.87533 9.70866H15.1253C15.9896 9.70866 16.4217 9.70866 16.6902 9.97714C16.9587 10.2456 16.9587 10.6778 16.9587 11.542V20.7087H19.7087V9.23735C19.7087 8.05701 19.7087 7.46684 19.4027 7.00596C19.0966 6.54508 18.5527 6.31606 17.4648 5.85802L12.4232 3.73521C11.7215 3.43973 11.3706 3.29199 11.0003 3.29199C10.6301 3.29199 10.2792 3.43973 9.57747 3.73521Z" stroke="#333333" stroke-width="1.5" stroke-linecap="round" stroke-linejoin="round"/>
<path d="M10.083 6.95801H11.9163" stroke="#333333" stroke-width="1.5" stroke-linecap="round" stroke-linejoin="round"/>
<path d="M11.9167 15.208H10.0833C9.2191 15.208 8.78697 15.208 8.51848 15.4765C8.25 15.745 8.25 16.1771 8.25 17.0413V18.8747C8.25 19.7389 8.25 20.171 8.51848 20.4395C8.78697 20.708 9.2191 20.708 10.0833 20.708H11.9167C12.7809 20.708 13.213 20.708 13.4815 20.4395C13.75 20.171 13.75 19.7389 13.75 18.8747V17.0413C13.75 16.1771 13.75 15.745 13.4815 15.4765C13.213 15.208 12.7809 15.208 11.9167 15.208Z" stroke="#333333" stroke-width="1.5" stroke-linecap="round" stroke-linejoin="round"/>
</svg>
